<?xml version="1.0" ?><svg enable-background="new 0 0 504 504" id="Layer_1" version="1.1" viewBox="0 0 504 504" xml:space="preserve" xmlns="http://www.w3.org/2000/svg" xmlns:xlink="http://www.w3.org/1999/xlink"><path d="M458.5,258.3c-9.2,58.5-27.1,75.6-58.8,114.9c-31.7,33.3-77.3,88.9-141.9,85.8  c-58.5-9.2-75.6-27.1-114.9-58.8c-33.3-31.7-88.9-77.3-85.8-141.9c9.2-58.5,27.1-75.6,58.8-114.9c31.7-33.3,77.3-88.9,141.9-85.8  c58.5,9.2,75.6,27.1,114.9,58.8C406,148.1,461.6,193.7,458.5,258.3z" fill="#3765AF"/><path d="M306.5,214.3c0.6,17.1-20.4,23.8-29.6,10.9c-11.7-16.4,0.2-34.2,1.9-51.6c2.1-21.8-10.4-43-26-55.7  c8.6,15.1-2.7,35.1-11.8,46.3c-8.8,10.8-19.4,19.9-29.1,29.7c-10.4,10.6-20.4,21.7-28.9,34.1c-17.1,24.9-27.5,56.1-19.8,87.1  c7.7,31,32.3,50.7,60.1,57.7c-14-6.6-27.1-23.4-27.2-40.6c0-18.7,10.9-34.6,24.4-45.1c-1.6,6.7-2.5,12.8,1.5,18.8  c3.7,5.6,10.3,8.3,16.5,6.8c14.5-3.5,15.2-20.8,6.6-31c-8.5-10-16.7-21.3-13.5-35.9c1.6-7.3,5.7-14.1,10.9-19  c-4,11.5,7.4,22.7,14.8,28.4c13,9.7,27.2,17.1,39.1,28.6c12.5,12,21.8,28.3,19.9,47.1c-2,20.4-16.9,34.6-33.6,41.8  c35.3-8.5,71.8-38.4,72.5-81C356,256.8,333.9,229.8,306.5,214.3" fill="#FFFFFF"/></svg>